<?xml version="1.0" encoding="UTF-8"?> <svg xmlns="http://www.w3.org/2000/svg" version="1.1" viewBox="0 0 776.6 541.7"><defs><style> .cls-1 { fill: #da251d; } .cls-2 { isolation: isolate; } .cls-3 { fill: #fefe0a; } </style></defs><g><g id="Layer_1"><g id="Layer_1-2" data-name="Layer_1"><g id="Layer_1-2"><g class="cls-2"><g id="Layer_2"><g id="_x2014_ÎÓÈ_x5F_2"><path class="cls-1" d="M776.4,50.8v440.1c-30-20.4-59.9-33.7-89.8-41.5-67.9-17.8-135.8-7.7-203.7,11.3-43.4,12.1-86.9,27.9-130.3,42.3-78,25.9-156.1,47.3-234.1,35.4C78.9,532.3,39.5,517.7,0,490.9V50.8c38,25.8,75.9,40.3,113.9,46.7,10.7,1.8,21.5,3,32.2,3.6,4.1.2,8.2.4,12.3.4,79.4,1.4,158.9-26.7,238.3-53.6,40.3-13.7,80.5-27.1,120.8-36.2,55.8-12.7,111.5-17.2,167.3-2.9,26.7,6.8,53.4,17.9,80.1,34.5,3.8,2.4,7.7,4.9,11.5,7.5h0Z"></path><polygon class="cls-3" points="386 128.2 409.8 214.8 515.9 217.9 437.1 269.5 470.7 369.2 390.2 306.2 312.8 373 333.8 273.1 260.5 224 359.3 214.9 386 128.2"></polygon><path class="cls-1" d="M776.6,143.2v347.7c-30-20.4-59.9-33.7-89.8-41.5-67.9-17.8-135.8-7.7-203.7,11.3-43.4,12.1-86.9,27.9-130.3,42.3-78,25.9-156.1,47.3-234.1,35.4-39.5-6-78.9-20.6-118.4-47.4v-16.4c32.9,12.4,74.2,28.5,125.7,35.6,123.4,16.9,288.3-115.4,466.9-127.3,87.9-5.9,152.5-151.4,183.7-239.6h0Z"></path></g></g></g></g></g></g></g></svg> 