<?xml version="1.0" encoding="UTF-8"?> <svg xmlns="http://www.w3.org/2000/svg" width="34.38" height="34.399" viewBox="0 0 34.38 34.399"><g id="Group_151" data-name="Group 151" transform="translate(-1204.853 -5449.261)"><path id="Path_134" data-name="Path 134" d="M1222.042,5483.654c-3.252,0-6.5.018-9.756,0a7.557,7.557,0,0,1-7.326-6.348,8.353,8.353,0,0,1-.1-1.293q-.011-9.562-.005-19.125a7.57,7.57,0,0,1,6.033-7.457,7.353,7.353,0,0,1,1.508-.156q9.645-.017,19.291-.006a7.585,7.585,0,0,1,7.468,6.514,8.118,8.118,0,0,1,.076,1.1q.008,9.584,0,19.167a7.592,7.592,0,0,1-6.063,7.45,14.734,14.734,0,0,1-1.536.158c-.05,0-.1,0-.152,0h-9.439Zm4.56-16.951.383-4.145h-3.277c0-.049-.009-.084-.009-.12,0-.52,0-1.041,0-1.561a.879.879,0,0,1,.975-.964h2.25v-3.547c-.048,0-.084-.005-.121-.005-1.041,0-2.082-.008-3.123,0a6.271,6.271,0,0,0-1.043.094,3.632,3.632,0,0,0-2.913,2.345,5.113,5.113,0,0,0-.342,1.92c0,.561,0,1.123,0,1.685,0,.048-.005.1-.008.157h-2.046v4.141h2.077v10.328h4.136V5466.7Z" fill="#fff"></path></g></svg> 