<?xml version="1.0" encoding="UTF-8"?> <svg xmlns="http://www.w3.org/2000/svg" width="49.133" height="34.544" viewBox="0 0 49.133 34.544"><path id="Path_135" data-name="Path 135" d="M1299.78,5459.052v13.811c-.032.2-.079.4-.093.6a17.336,17.336,0,0,1-.883,4.74,7.247,7.247,0,0,1-3.977,4.37,14.28,14.28,0,0,1-5.123,1.108c-1.771.093-3.548.113-5.322.115-7.262.006-14.524.011-21.786-.026a17.358,17.358,0,0,1-6.479-1.14,7.552,7.552,0,0,1-3.977-3.435,12.291,12.291,0,0,1-1.394-5.669c-.093-4.01-.1-8.021-.1-12.032,0-1.58.076-3.163.189-4.739a8.473,8.473,0,0,1,1.061-3.648,6.971,6.971,0,0,1,4.712-3.168,25.7,25.7,0,0,1,6.326-.672q11.853-.015,23.706-.011a31.023,31.023,0,0,1,6.819.594,8.19,8.19,0,0,1,3.853,1.818,7.419,7.419,0,0,1,2.182,4.724C1299.618,5457.278,1299.686,5458.166,1299.78,5459.052Zm-30.23,7.253c0,1.709,0,3.419,0,5.128a1.611,1.611,0,0,0,2.542,1.538q4.929-2.562,9.853-5.133a1.632,1.632,0,0,0,0-3.068q-4.915-2.536-9.822-5.091a1.623,1.623,0,0,0-2.57,1.546C1269.546,5462.918,1269.55,5464.612,1269.55,5466.305Z" transform="translate(-1250.647 -5449.261)" fill="#fff"></path></svg> 