<svg xmlns="http://www.w3.org/2000/svg" width="14.594" height="14.598" viewBox="0 0 14.594 14.598">
  <path id="Path_89" data-name="Path 89" d="M2798.4,1444.911v1.254a1.438,1.438,0,0,0-.048.191,7.286,7.286,0,0,1-5.344,6.221c-.418.115-.851.173-1.278.258h-1.254a1.262,1.262,0,0,0-.19-.049,7.3,7.3,0,1,1,7.838-9.207C2798.25,1444.015,2798.314,1444.467,2798.4,1444.911Zm-3.87,2.862-.285-.235c-.751-.611-1.5-1.225-2.256-1.83a.487.487,0,0,1-.206-.429c.008-1.405,0-2.811,0-4.216v-.3h-1.351a.9.9,0,0,0-.016.119c0,1.7,0,3.4.006,5.1a.46.46,0,0,0,.167.294c.644.547,1.3,1.083,1.948,1.622l1.062.879Z" transform="translate(-2783.811 -1438.237)" fill="#009bab"/>
</svg>
