<svg xmlns="http://www.w3.org/2000/svg" width="10.979" height="15.845" viewBox="0 0 10.979 15.845">
  <path id="Path_87" data-name="Path 87" d="M2789.746,1356.727c-.222-.34-.366-.553-.5-.77-1.4-2.245-2.822-4.479-4.2-6.74a5.4,5.4,0,0,1,.241-6.083,5.478,5.478,0,0,1,9.852,2.519,4.627,4.627,0,0,1-.5,3.064C2793.067,1351.367,2791.431,1353.981,2789.746,1356.727Zm-.072-7.946a2.414,2.414,0,1,0-2.377-2.434A2.423,2.423,0,0,0,2789.674,1348.781Z" transform="translate(-2784.225 -1340.882)" fill="#009bab"/>
</svg>
