<svg xmlns="http://www.w3.org/2000/svg" width="13.525" height="14.492" viewBox="0 0 13.525 14.492">
  <path id="Path_88" data-name="Path 88" d="M2794.155,1416.809a6.159,6.159,0,0,1-3.325-1.271,16.115,16.115,0,0,1-4.985-5.72,6.43,6.43,0,0,1-.809-3.436,4.392,4.392,0,0,1,1.693-3.291c.208-.165.4-.35.608-.514a.965.965,0,0,1,1.379.062,7.469,7.469,0,0,1,1.333,1.92,3.39,3.39,0,0,1,.322.938,1.231,1.231,0,0,1-.437,1.192c-.266.241-.545.472-.831.69a1.228,1.228,0,0,0-.451,1.6,8.108,8.108,0,0,0,1.666,2.427,6.489,6.489,0,0,0,1.687,1.436,1.222,1.222,0,0,0,1.7-.253,9.781,9.781,0,0,1,.739-.674,1.4,1.4,0,0,1,1.588-.17,5.59,5.59,0,0,1,1.4,1.022,7.9,7.9,0,0,1,.884.928.885.885,0,0,1-.044,1.247,6.5,6.5,0,0,1-1.933,1.481A5.092,5.092,0,0,1,2794.155,1416.809Z" transform="translate(-2785.024 -1402.317)" fill="#009bab"/>
</svg>
